<?xml version="1.0" encoding="UTF-8" standalone="no"?>
<!-- Created with Inkscape (http://www.inkscape.org/) -->

<svg
   width="210mm"
   height="210mm"
   viewBox="0 0 210 210"
   version="1.1"
   id="svg1"
   sodipodi:docname="cerrar.svg"
   inkscape:version="1.4 (86a8ad7, 2024-10-11)"
   xmlns:inkscape="http://www.inkscape.org/namespaces/inkscape"
   xmlns:sodipodi="http://sodipodi.sourceforge.net/DTD/sodipodi-0.dtd"
   xmlns="http://www.w3.org/2000/svg"
   xmlns:svg="http://www.w3.org/2000/svg">
  <sodipodi:namedview
     id="namedview1"
     pagecolor="#505050"
     bordercolor="#eeeeee"
     borderopacity="1"
     inkscape:showpageshadow="0"
     inkscape:pageopacity="0"
     inkscape:pagecheckerboard="0"
     inkscape:deskcolor="#505050"
     inkscape:document-units="mm"
     inkscape:zoom="1.4174107"
     inkscape:cx="396.85039"
     inkscape:cy="396.85039"
     inkscape:window-width="2560"
     inkscape:window-height="1351"
     inkscape:window-x="-9"
     inkscape:window-y="-9"
     inkscape:window-maximized="1"
     inkscape:current-layer="svg1" />
  <defs
     id="defs1" />
  <g
     id="layer1"
     style="fill:#ffffff;stroke:none">
    <path
       id="path5"
       style="opacity:1;fill:#ffffff;stroke:none;stroke-width:4.34459;stroke-linecap:round;stroke-linejoin:round;stroke-miterlimit:0;paint-order:stroke fill markers"
       d="m 27.728023,12.228711 c -2.80312,0 -5.606153,1.074002 -7.754048,3.222025 l -4.055567,4.055567 c -4.295791,4.296047 -4.295791,11.213084 0,15.509131 l 71.479358,71.483496 -71.485042,71.4809 c -4.296047,4.29579 -4.296047,11.21231 0,15.5081 l 4.056083,4.05557 c 4.296047,4.29579 11.213084,4.29579 15.509131,0 l 71.483492,-71.47936 71.48039,71.48504 c 4.29579,4.29605 11.21231,4.29605 15.5081,0 l 4.05608,-4.05608 c 4.29579,-4.29605 4.29579,-11.21309 0,-15.50913 l -71.47936,-71.48349 71.48453,-71.480395 c 4.29605,-4.295791 4.29605,-11.212824 0,-15.508614 l -4.05608,-4.055567 c -4.29605,-4.295791 -11.21309,-4.295791 -15.50913,0 L 106.96246,86.935262 35.482072,15.450736 c -2.147895,-2.148023 -4.950929,-3.222025 -7.754049,-3.222025 z" />
  </g>
</svg>
