<?xml version="1.0" encoding="UTF-8" standalone="no"?>
<!-- Created with Inkscape (http://www.inkscape.org/) -->

<svg
   width="210mm"
   height="210mm"
   viewBox="0 0 210 210"
   version="1.1"
   id="svg1"
   xml:space="preserve"
   xmlns="http://www.w3.org/2000/svg"
   xmlns:svg="http://www.w3.org/2000/svg"><defs
     id="defs1" /><g
     id="layer1"
     style="display:inline"><rect
       style="fill:none;stroke:#000000;stroke-width:5.9;stroke-linecap:round;stroke-linejoin:round;stroke-miterlimit:0;paint-order:markers fill stroke"
       id="rect1"
       width="183.12001"
       height="191.89333"
       x="13.439995"
       y="9.0533371"
       ry="20.906666" /><path
       d="m 87.071688,67.485803 c -16.97033,0.0225 -29.057039,0.164113 -29.235425,0.372587 -0.237853,0.277969 -0.186769,4.503389 0.113688,9.389608 0.300458,4.886218 0.887459,15.588129 1.304313,23.782532 0.416853,8.19439 1.101011,21.4695 1.520321,29.5 0.419307,8.03051 0.997229,19.42821 1.284676,25.32817 0.724026,14.86079 1.884213,18.29546 7.23005,21.40903 2.286662,1.33183 24.479912,1.81602 43.694489,1.57613 a 48.767643,48.912406 2.3382492e-5 0 1 -29.339293,-45.53107 48.767643,48.912406 2.3382492e-5 0 1 49.587153,-48.076649 48.767643,48.912406 2.3382492e-5 0 1 18.30793,3.924825 c 0.0709,-1.220551 0.18335,-3.393611 0.23719,-4.220931 1.25999,-19.360507 6.83741,-17.263431 -46.36719,-17.435111 -6.481919,-0.02092 -12.681126,-0.02662 -18.337902,-0.01912 z"
       style="display:inline;fill:#00aad4;stroke-width:2.08354"
       id="path14" /><path
       d="m 99.749467,29.884481 c -13.457125,0.0052 -14.743014,0.993808 -17.35708,6.752559 -1.231048,2.711905 -1.231084,2.712197 -13.470496,2.715597 -13.58409,0.0037 -15.306152,0.320506 -17.483687,3.218925 -3.633195,4.835979 -1.854127,12.831389 3.257682,14.639416 h 5.17e-4 c 3.258929,1.152671 100.812077,0.428241 102.363777,-0.76016 4.5571,-3.490446 4.55792,-12.234779 0.001,-15.728239 -1.23377,-0.945837 -3.01572,-1.110943 -14.80013,-1.373043 -13.39743,-0.297978 -13.39749,-0.2982 -15.06729,-3.54862 -2.92672,-5.697127 -2.79696,-5.660632 -20.89227,-5.86941 -2.45858,-0.02837 -4.62961,-0.04777 -6.552053,-0.04702 z"
       style="fill:#00aad4;stroke-width:2.08354"
       id="path13" /><ellipse
       style="display:inline;fill:#00aad4;fill-opacity:1;stroke:none;stroke-width:5.95419;stroke-linecap:round;stroke-linejoin:round;stroke-miterlimit:0;stroke-dasharray:none;stroke-dashoffset:0;paint-order:markers fill stroke"
       id="ellipse13"
       cx="134.65268"
       cy="131.87186"
       transform="matrix(0.99985554,0.01699701,-0.01689658,0.99985724,0,0)"
       rx="41.006351"
       ry="41.128006" /></g><path
     d="m 132.40504,106.54172 c 1.90828,0 3.45,1.54172 3.45,3.45 v 3.74109 c 8.66812,1.44469 15.51422,8.29079 16.95891,16.95891 h 3.74109 c 1.90828,0 3.45,1.54172 3.45,3.45 0,1.90828 -1.54172,3.45 -3.45,3.45 h -3.74109 c -1.44469,8.66812 -8.29079,15.51422 -16.95891,16.95891 v 3.74109 c 0,1.90828 -1.54172,3.45 -3.45,3.45 -1.90828,0 -3.45,-1.54172 -3.45,-3.45 v -3.74109 c -8.66812,-1.44469 -15.51422,-8.29079 -16.95891,-16.95891 h -3.74109 c -1.90828,0 -3.45,-1.54172 -3.45,-3.45 0,-1.90828 1.54172,-3.45 3.45,-3.45 h 3.74109 c 1.44469,-8.66812 8.29079,-15.51422 16.95891,-16.95891 v -3.74109 c 0,-1.90828 1.54172,-3.45 3.45,-3.45 z m -13.8,27.6 a 13.8,13.8 0 1 0 27.6,0 13.8,13.8 0 1 0 -27.6,0 z m 13.8,-8.625 a 8.625,8.625 0 1 1 0,17.25 8.625,8.625 0 1 1 0,-17.25 z"
     id="path1"
     style="fill:#ffffff;stroke-width:0.107812" /><text
     xml:space="preserve"
     style="font-weight:bold;font-size:38.8056px;line-height:1;font-family:sans-serif;-inkscape-font-specification:'sans-serif Bold';text-align:end;word-spacing:0px;writing-mode:lr-tb;direction:ltr;text-anchor:end;fill:#ffffff;stroke-width:5.1;stroke-linecap:round;stroke-linejoin:round;stroke-miterlimit:0;stroke-dasharray:5.1, 8.67;paint-order:stroke fill markers"
     x="122.26667"
     y="184.98666"
     id="text1"><tspan
       id="tspan1"
       style="font-style:normal;font-variant:normal;font-weight:normal;font-stretch:normal;font-size:38.8056px;font-family:'Arial Rounded MT Bold';-inkscape-font-specification:'Arial Rounded MT Bold, ';stroke-width:5.1"
       x="122.26668"
       y="184.98666">LAST</tspan></text></svg>
