<?xml version="1.0" encoding="UTF-8" standalone="no"?>
<!-- Created with Inkscape (http://www.inkscape.org/) -->

<svg
   width="210mm"
   height="210mm"
   viewBox="0 0 210 210"
   version="1.1"
   id="svg1"
   xml:space="preserve"
   xmlns="http://www.w3.org/2000/svg"
   xmlns:svg="http://www.w3.org/2000/svg"><defs
     id="defs1" /><g
     id="layer1"
     style="display:inline"><rect
       style="fill:none;stroke:#000000;stroke-width:5.9;stroke-linecap:round;stroke-linejoin:round;stroke-miterlimit:0;paint-order:markers fill stroke"
       id="rect1"
       width="183.12001"
       height="191.89333"
       x="13.439995"
       y="9.0533371"
       ry="20.906666" /><path
       d="m 87.071688,67.485803 c -16.97033,0.0225 -29.057039,0.164113 -29.235425,0.372587 -0.237853,0.277969 -0.186769,4.503389 0.113688,9.389608 0.300458,4.886218 0.887459,15.588129 1.304313,23.782532 0.416853,8.19439 1.101011,21.4695 1.520321,29.5 0.419307,8.03051 0.997229,19.42821 1.284676,25.32817 0.724026,14.86079 1.884213,18.29546 7.23005,21.40903 2.286662,1.33183 24.479912,1.81602 43.694489,1.57613 a 48.767643,48.912406 2.3382492e-5 0 1 -29.339293,-45.53107 48.767643,48.912406 2.3382492e-5 0 1 49.587153,-48.076649 48.767643,48.912406 2.3382492e-5 0 1 18.30793,3.924825 c 0.0709,-1.220551 0.18335,-3.393611 0.23719,-4.220931 1.25999,-19.360507 6.83741,-17.263431 -46.36719,-17.435111 -6.481919,-0.02092 -12.681126,-0.02662 -18.337902,-0.01912 z"
       style="display:inline;fill:#00aad4;stroke-width:2.08354"
       id="path14" /><path
       d="m 99.749467,29.884481 c -13.457125,0.0052 -14.743014,0.993808 -17.35708,6.752559 -1.231048,2.711905 -1.231084,2.712197 -13.470496,2.715597 -13.58409,0.0037 -15.306152,0.320506 -17.483687,3.218925 -3.633195,4.835979 -1.854127,12.831389 3.257682,14.639416 h 5.17e-4 c 3.258929,1.152671 100.812077,0.428241 102.363777,-0.76016 4.5571,-3.490446 4.55792,-12.234779 0.001,-15.728239 -1.23377,-0.945837 -3.01572,-1.110943 -14.80013,-1.373043 -13.39743,-0.297978 -13.39749,-0.2982 -15.06729,-3.54862 -2.92672,-5.697127 -2.79696,-5.660632 -20.89227,-5.86941 -2.45858,-0.02837 -4.62961,-0.04777 -6.552053,-0.04702 z"
       style="stroke-width:2.08354;fill:#00aad4"
       id="path13" /><ellipse
       style="display:inline;fill:#00aad4;stroke:none;stroke-width:5.95419;stroke-linecap:round;stroke-linejoin:round;stroke-miterlimit:0;stroke-dasharray:none;stroke-dashoffset:0;paint-order:markers fill stroke;fill-opacity:1"
       id="ellipse13"
       cx="134.65268"
       cy="131.87186"
       transform="matrix(0.99985554,0.01699701,-0.01689658,0.99985724,0,0)"
       rx="41.006351"
       ry="41.128006" /><path
       style="display:inline;fill:#f9f9f9;stroke:#ffffff;stroke-width:5.9;stroke-linecap:round;stroke-linejoin:round;stroke-miterlimit:0;paint-order:markers fill stroke"
       id="path4"
       d="m 108.45333,53.573334 -13.776473,-0.25948 -13.776478,-0.25948 7.112956,-11.80104 7.112955,-11.80104 6.66352,12.06052 z"
       transform="matrix(0.6476543,0,0,0.49629803,71.620673,85.482822)" /><path
       style="display:inline;fill:none;stroke:#ffffff;stroke-width:5.80487;stroke-linecap:round;stroke-linejoin:round;stroke-miterlimit:0;stroke-dasharray:5.80487, 10.4488;stroke-dashoffset:0;paint-order:markers fill stroke"
       d="m 133.87287,165.83506 c -1.90369,-11.84636 15.79424,-8.19023 15.70536,-19.96333 -0.0889,-11.77308 -34.02829,0.98721 -33.67134,-8.33633 0.35693,-9.32351 5.25453,-8.64849 13.44475,-8.11695 3.36201,0.21821 3.45042,-11.51728 3.45042,-17.00171"
       id="path3" /></g></svg>
