<?xml version="1.0" encoding="UTF-8" standalone="no"?>
<!-- Created with Inkscape (http://www.inkscape.org/) -->

<svg
   width="210mm"
   height="210mm"
   viewBox="0 0 210 210"
   version="1.1"
   id="svg1"
   xmlns="http://www.w3.org/2000/svg"
   xmlns:svg="http://www.w3.org/2000/svg">
  <defs
     id="defs1" />
  <g
     id="layer1">
    <path
       d="m 25.000001,15 c -12.217238,0 -9.999883,9.835281 -9.999883,22.052519 V 172.94707 c 0,12.21723 9.835163,22.05291 22.052401,22.05291 H 172.94707 c 12.21723,0 22.05291,-9.83568 22.05291,-22.05291 V 37.052519 c 0,-12.217238 -9.83568,-22.052401 -22.05291,-22.052401 H 94.999886 V 30.000236 H 100.0001 V 76.000012 H 69.999862 L 107.52005,108.00013 144.99993,76.000012 H 115.00022 V 30.000236 L 168,30.000001 c 12.0827,-5.4e-5 12,-0.0827 12,12 V 167.42936 c 0,12.0827 0.04,12.57066 -12.04267,12.57064 L 51.809757,179.99987 C 30.000001,179.99984 30.000236,180 30.000236,158.18983 V 51.809757 c 0,-8.693141 -2.35e-4,-16.809756 -2.35e-4,-21.809756 V 15 Z"
       style="display:inline;stroke-width:0.730962;stroke-linecap:round;stroke-linejoin:round;stroke-miterlimit:1.9;paint-order:fill markers stroke"
       id="path15" />
  </g>
  <path
     style="fill:#000000;fill-opacity:1;stroke:none;stroke-width:5.9;stroke-linecap:round;stroke-linejoin:round;stroke-miterlimit:0;stroke-dasharray:none;stroke-opacity:1;paint-order:markers fill stroke"
     d="m 50,125.65039 c 2.026552,0 3.617717,0.44006 4.767578,1.56836 1.149861,1.1283 2.222656,3.28292 2.222656,7.78125 0,1.99833 -0.534159,4.5517 -1.408203,7.17383 -0.874043,2.62213 -2.068308,5.32021 -3.273437,7.73047 -0.798713,1.59742 -1.593987,3.04735 -2.308594,4.29882 -0.714607,-1.25147 -1.509881,-2.7014 -2.308594,-4.29882 -1.205129,-2.41026 -2.399394,-5.10834 -3.273437,-7.73047 -0.874044,-2.62213 -1.408203,-5.1755 -1.408203,-7.17383 0,-4.49833 1.072795,-6.65295 2.222656,-7.78125 1.149861,-1.1283 2.741025,-1.56836 4.767578,-1.56836 z"
     id="path4"
     transform="matrix(1.0444988,0,0,0.76613353,-2.2249375,40.078118)" />
  <path
     style="fill:#000000;fill-opacity:1;stroke:none;stroke-width:5.9;stroke-linecap:round;stroke-linejoin:round;stroke-miterlimit:0;stroke-dasharray:none;stroke-opacity:1;paint-order:markers fill stroke"
     d="m 50,125.65039 c 2.026552,0 3.617717,0.44006 4.767578,1.56836 1.149861,1.1283 2.222656,3.28292 2.222656,7.78125 0,1.99833 -0.534159,4.5517 -1.408203,7.17383 -0.874043,2.62213 -2.068308,5.32021 -3.273437,7.73047 -0.798713,1.59742 -1.593987,3.04735 -2.308594,4.29882 -0.714607,-1.25147 -1.509881,-2.7014 -2.308594,-4.29882 -1.205129,-2.41026 -2.399394,-5.10834 -3.273437,-7.73047 -0.874044,-2.62213 -1.408203,-5.1755 -1.408203,-7.17383 0,-4.49833 1.072795,-6.65295 2.222656,-7.78125 1.149861,-1.1283 2.741025,-1.56836 4.767578,-1.56836 z"
     id="path5"
     transform="matrix(1.0444988,0,0,0.76613353,96.944638,-3.924133)" />
  <path
     style="fill:none;fill-opacity:1;stroke:#17280b;stroke-width:11.1;stroke-linecap:round;stroke-linejoin:round;stroke-miterlimit:1.9;stroke-dasharray:none;stroke-opacity:1;paint-order:fill markers stroke"
     d="M 55.000004,165 H 140 c 15,0 12.48,-20 0,-20 H 93.000002 c -16,0 -15,-25 -3,-25 H 140"
     id="path3" />
</svg>
