<?xml version="1.0" encoding="UTF-8" standalone="no"?>
<!-- Created with Inkscape (http://www.inkscape.org/) -->

<svg
   width="210mm"
   height="210mm"
   viewBox="0 0 210 210"
   version="1.1"
   id="svg1"
   xmlns="http://www.w3.org/2000/svg"
   xmlns:svg="http://www.w3.org/2000/svg">
  <defs
     id="defs1" />
  <g
     id="layer1">
    <rect
       style="fill:none;stroke:#000000;stroke-width:5.9;stroke-linecap:round;stroke-linejoin:round;stroke-miterlimit:0;paint-order:markers fill stroke"
       id="rect1"
       width="183.12001"
       height="191.89333"
       x="13.439995"
       y="9.0533371"
       ry="20.906666" />
    <path
       style="display:inline;opacity:0.86;fill:#3aa2bc;fill-opacity:1;stroke:#ffffff;stroke-width:4.4;stroke-linecap:round;stroke-linejoin:round;stroke-miterlimit:0;stroke-dasharray:none;paint-order:stroke fill markers"
       d="M 29.493334,179.76 74.106667,30.8 l 22.026668,70 13.999995,-37.893334 19.04,60.666674 12.69334,-19.60001 L 178.64,179.76 h -14.18667 l -22.58666,-50.4 -12.69334,24.82666 -19.04,-53.01332 L 96.133335,134.58667 74.106667,84.186668 46.853333,179.76 Z"
       id="path1" />
    <path
       id="path21"
       style="opacity:0.86;fill:#ffffff;stroke:#ffffff;stroke-width:3;stroke-linecap:round;stroke-linejoin:round;stroke-miterlimit:0;paint-order:stroke fill markers;stroke-dasharray:none;fill-opacity:1"
       d="m 164.07991,92.406246 -3.3476,-4.721159 -3.84783,-5.426025 A 22.545717,22.545717 0 0 1 143.54679,86.724939 22.545717,22.545717 0 0 1 122.1574,70.962077 h -12.77028 a 34.906666,34.906666 0 0 0 34.15967,28.123865 34.906666,34.906666 0 0 0 20.53312,-6.679696 z m -2.94556,-14.290084 -6.74067,0.629936 2.4908,3.512964 a 22.545717,22.545717 0 0 0 4.24987,-4.1429 z m 14.88178,-1.391129 -10.71149,1.001489 -4.17029,0.38964 a 22.545717,22.545717 0 0 1 -4.24987,4.1429 l 3.84783,5.426025 3.3476,4.721159 a 34.906666,34.906666 0 0 0 11.93622,-15.681213 z m 0,0 a 34.906666,34.906666 0 0 1 -11.93622,15.681213 l 2.99103,4.218347 4.57233,-9.959082 4.57233,-9.959082 z" />
    <path
       id="path18"
       style="opacity:0.86;fill:#ffffff;stroke:#ffffff;stroke-width:3;stroke-linecap:round;stroke-linejoin:round;stroke-miterlimit:0;paint-order:stroke fill markers;stroke-dasharray:none;fill-opacity:1"
       d="m 109.78296,55.746985 a 34.906666,34.906666 0 0 1 8.66149,-15.759245 l -4.19819,-4.627108 -3.34709,10.434506 -3.34656,10.435022 z m 0,0 8.47959,-1.836064 6.02909,-1.305346 a 22.545717,22.545717 0 0 1 2.51716,-3.398759 l -5.19917,-5.7304 -3.16518,-3.488676 a 34.906666,34.906666 0 0 0 -8.66149,15.759245 z m 17.02584,-6.540169 a 22.545717,22.545717 0 0 0 -2.51716,3.398759 L 128.97301,51.5922 Z M 143.54679,29.272632 A 34.906666,34.906666 0 0 0 118.44445,39.98774 l 3.16518,3.488676 5.19917,5.7304 a 22.545717,22.545717 0 0 1 16.73799,-7.573182 22.545717,22.545717 0 0 1 22.15782,18.424199 h 12.4964 A 34.906666,34.906666 0 0 0 143.54679,29.272632 Z" />
  </g>
</svg>
