<?xml version="1.0" encoding="UTF-8" standalone="no"?>
<!-- Created with Inkscape (http://www.inkscape.org/) -->

<svg
   width="210mm"
   height="210mm"
   viewBox="0 0 210 210"
   version="1.1"
   id="svg1"
   xml:space="preserve"
   sodipodi:docname="save.svg"
   inkscape:version="1.4 (86a8ad7, 2024-10-11)"
   xmlns:inkscape="http://www.inkscape.org/namespaces/inkscape"
   xmlns:sodipodi="http://sodipodi.sourceforge.net/DTD/sodipodi-0.dtd"
   xmlns="http://www.w3.org/2000/svg"
   xmlns:svg="http://www.w3.org/2000/svg"><sodipodi:namedview
     id="namedview1"
     pagecolor="#505050"
     bordercolor="#eeeeee"
     borderopacity="1"
     inkscape:showpageshadow="0"
     inkscape:pageopacity="0"
     inkscape:pagecheckerboard="0"
     inkscape:deskcolor="#505050"
     inkscape:document-units="mm"
     showguides="true"
     inkscape:zoom="1.4174107"
     inkscape:cx="396.85039"
     inkscape:cy="396.85039"
     inkscape:window-width="2560"
     inkscape:window-height="1351"
     inkscape:window-x="-9"
     inkscape:window-y="-9"
     inkscape:window-maximized="1"
     inkscape:current-layer="layer1"><sodipodi:guide
       position="143.54666,30.799999"
       orientation="0,-1"
       id="guide1"
       inkscape:locked="false" /><sodipodi:guide
       position="31.173333,114.8"
       orientation="1,0"
       id="guide2"
       inkscape:locked="false" /><sodipodi:guide
       position="177.70666,89.973331"
       orientation="1,0"
       id="guide3"
       inkscape:locked="false" /><sodipodi:guide
       position="149.70666,180.50666"
       orientation="0,-1"
       id="guide4"
       inkscape:locked="false" /></sodipodi:namedview><defs
     id="defs1" /><g
     id="layer1"
     style="display:inline"><rect
       style="fill:none;stroke:#000000;stroke-width:5.9;stroke-linecap:round;stroke-linejoin:round;stroke-miterlimit:0;paint-order:markers fill stroke"
       id="rect1"
       width="183.12001"
       height="191.89333"
       x="13.439995"
       y="9.0533371"
       ry="20.906666" /><ellipse
       style="display:inline;fill:#00aad4;fill-opacity:1;stroke:none;stroke-width:6.64535;stroke-linecap:round;stroke-linejoin:round;stroke-miterlimit:0;stroke-dasharray:none;stroke-dashoffset:0;paint-order:markers fill stroke"
       id="circle9"
       cx="122.78996"
       cy="120.37055"
       transform="matrix(0.99985554,0.01699701,-0.01689658,0.99985724,0,0)"
       rx="45.766354"
       ry="45.90213" /><path
       style="display:inline;fill:#ffffff;stroke:#ffffff;stroke-width:4.03338;stroke-linecap:round;stroke-linejoin:round;stroke-miterlimit:0;paint-order:markers fill stroke"
       id="path4"
       d="m 132.66865,97.62392 -12.04375,-0.13879 -12.04374,-0.13863 6.21832,-6.30857 6.21834,-6.308582 5.82541,6.447292 z" /><path
       style="display:inline;fill:none;stroke:#ffffff;stroke-width:5.1;stroke-linecap:round;stroke-linejoin:round;stroke-miterlimit:0;stroke-dasharray:5.0999999,8.66999984;stroke-dashoffset:0;paint-order:markers fill stroke"
       d="m 121.88608,155.53468 c -2.56966,-12.76009 21.3196,-8.82195 21.19963,-21.50312 -0.12001,-12.68115 -45.93253,1.06335 -45.45072,-8.97932 0.48181,-10.04265 7.09275,-9.31555 18.14818,-8.74302 4.53816,0.23504 4.65751,-12.40562 4.65751,-18.31306"
       id="path3" /><path
       d="M 145.72702,29.311906 49.963875,29.935124 C 39.354292,30.004144 30.869323,38.54654 30.939197,49.088477 l 0.741557,111.854673 c 0.06988,10.54193 8.667275,18.97329 19.276859,18.90427 l 65.757747,-0.42788 a 48.85968,48.548141 0.17433219 0 1 -0.0982,-0.34262 56.779649,56.948195 2.3313861e-5 0 1 -52.650532,-57.60165 56.779649,56.948195 2.3313861e-5 0 1 57.733942,-55.974875 56.779649,56.948195 2.3313861e-5 0 1 43.56117,21.62452 L 165.00388,48.216178 C 164.93396,37.674241 156.3366,29.242889 145.72702,29.311906 Z"
       style="opacity:1;fill:#00aad4;stroke-width:6.12815;stroke-linecap:round;stroke-linejoin:round;stroke-miterlimit:0;paint-order:stroke fill markers"
       id="path6" /><path
       d="m 145.9451,71.425098 c 4.69011,-1.577811 8.0548,-5.989866 8.0548,-11.225155 v -7.466728 c 0,-6.566746 -5.28627,-11.853023 -11.85302,-11.853023 H 51.613387 c -6.566747,0 -11.85354,5.286277 -11.85354,11.853023 v 7.466728 c 0,6.566747 5.286793,11.85354 11.85354,11.85354 h 42.88162 a 56.779649,56.948195 2.3313861e-5 0 1 27.205573,-6.553088 56.779649,56.948195 2.3313861e-5 0 1 24.24452,5.924703 z"
       style="display:inline;opacity:1;fill:#ffffff;stroke-width:7.0062;stroke-linecap:round;stroke-linejoin:round;stroke-miterlimit:0;paint-order:stroke fill markers"
       id="path7" /></g></svg>
