<?xml version="1.0" encoding="UTF-8" standalone="no"?>
<!-- Created with Inkscape (http://www.inkscape.org/) -->

<svg
   width="210mm"
   height="210mm"
   viewBox="0 0 210 210"
   version="1.1"
   id="svg1"
   xml:space="preserve"
   xmlns="http://www.w3.org/2000/svg"
   xmlns:svg="http://www.w3.org/2000/svg"><defs
     id="defs1" /><g
     id="layer1"
     style="display:inline"><rect
       style="display:inline;fill:none;stroke:#000000;stroke-width:5.9;stroke-linecap:round;stroke-linejoin:round;stroke-miterlimit:0;paint-order:markers fill stroke"
       id="rect1"
       width="183.12001"
       height="191.89333"
       x="13.439995"
       y="9.0533371"
       ry="20.906666" /><path
       d="m 145.88019,16.426589 c -8.05038,-0.08576 -15.94784,2.207169 -22.70766,6.592879 -5.66771,-2.991831 -11.95536,-4.610511 -18.35909,-4.726326 C 94.40509,18.166752 84.338341,22.015102 76.654437,29.057859 73.185149,28.04967 69.598256,27.505633 65.986871,27.43987 43.343139,27.055055 24.675665,45.153836 24.291742,67.864793 c -0.283526,20.736198 14.869915,38.440287 35.349263,41.299287 1.788292,0.67618 3.721341,1.06247 5.752104,1.06247 h 80.333601 c 8.66809,0 15.68416,-6.74248 16.16025,-15.287441 14.4979,-6.483151 23.96291,-20.776182 24.29878,-36.693367 0.38382,-22.711152 -17.6616,-41.43424 -40.30555,-41.819153 z"
       style="baseline-shift:baseline;display:inline;overflow:visible;vector-effect:none;fill:#00aad4;stroke-linecap:round;stroke-linejoin:round;stroke-miterlimit:0;paint-order:markers fill stroke;enable-background:accumulate;stop-color:#000000;stop-opacity:1"
       id="path55" /><path
       id="path11"
       style="fill:none;fill-opacity:1;stroke:#ffffff;stroke-width:4;stroke-linecap:round;stroke-linejoin:round;stroke-miterlimit:0;stroke-dasharray:none;stroke-dashoffset:0;stroke-opacity:1;paint-order:stroke fill markers"
       d="m 118.33738,125.25417 c 1.92615,0.125 5.34026,-0.35657 5.32,-2.28667 -0.0204,-1.94682 -3.46716,-2.24781 -5.41333,-2.19334 -1.53026,0.0428 -4.08093,0.43086 -4.15334,1.96001 -0.0778,1.64418 2.6041,2.41341 4.24667,2.52 z m -9.39739,-3.98684 c -0.20862,2.54175 4.12863,10.2517 9.02405,10.33267 6.24992,0.10338 10.03067,-7.5456 11.05297,-10.26101 M 84.410706,149.0075 c 2.170356,0.17962 5.379702,1.7476 5.226669,3.91999 -0.199602,2.83348 -4.634646,4.32594 -7.466668,4.10667 -2.23353,-0.17293 -5.520273,-1.87541 -5.320001,-4.10666 0.253768,-2.82726 4.731049,-4.15413 7.56,-3.92 z m 9.193336,-2.00751 c -2.008687,-1.72068 -4.857939,-2.97997 -7.727129,-3.18865 -10.736303,-0.78087 -15.785379,5.82294 -16.072871,7.57533 -1.288525,7.85413 -0.299229,14.69474 5.879998,19.69332 9.893332,-1.95996 20.813333,-9.05332 20.440001,-18.10666 m 60.013339,-23.70666 -29.49334,18.19999 45.45334,24.82667 m -29.86667,-43.4 10.92,-6.62666 m -70.768344,-1.03702 35.488344,20.91701 16.33333,-9.05333 m -75.319999,7.09334 24.08,-10.45334 -11.869346,-8.31702 M 50.577375,151.29333 88.750706,133.84 155.39071,176.58666 M 44.884042,176.96 165.47071,176.77333 c 0,0 7.84,-1.12 6.44,-5.41333 -1.4,-4.29334 -18.2,-48.16 -18.2,-48.16 0,0 -1.12,-1.86667 -3.92,-2.05333 -2.8,-0.18667 -20.72371,0.0113 -20.72371,0.0113 0,0 0.006,-3.61568 -9.97163,-4.09535 -7.66466,-0.36849 -10.14503,4.23769 -10.14503,4.23769 l -35.2263,-0.15366 c 0,0 -5.319998,-0.28 -6.439998,2.42666 C 66.16404,126.28 38.630707,170.8 38.537376,170.42666 38.444041,170.05333 35.084042,177.24 44.884042,176.96 Z" /><path
       style="fill:#37abc8;fill-opacity:1;stroke:none;stroke-width:15.084;stroke-linecap:round;stroke-linejoin:round;stroke-miterlimit:0;stroke-dasharray:none;stroke-dashoffset:0;stroke-opacity:1;paint-order:stroke fill markers"
       d="m 584.97636,501.7368 c -30.14873,17.5009 -59.88384,35.84284 -89.02141,54.97923 3.65054,3.67734 10.071,5.80265 14.66586,8.89085 41.39376,22.86722 82.78299,45.79221 124.63251,67.8049 0.41001,-3.63797 -2.80259,-8.17014 -3.64778,-12.04483 -15.0403,-39.79037 -29.35071,-79.91484 -45.85749,-119.11958 -0.14846,-0.26592 -0.38799,-0.68406 -0.77169,-0.51057 z"
       id="path13"
       transform="scale(0.26458333)" /><path
       style="fill:#37abc8;fill-opacity:1;stroke:none;stroke-width:15.084;stroke-linecap:round;stroke-linejoin:round;stroke-miterlimit:0;stroke-dasharray:none;stroke-dashoffset:0;stroke-opacity:1;paint-order:stroke fill markers"
       d="m 265.12328,467.65565 c -5.47649,2.06463 -6.19006,9.54714 -9.81566,13.55882 -6.30526,11.12052 -13.42401,21.91665 -19.19102,33.27475 3.9675,0.38206 8.34552,-3.45492 12.33715,-4.4264 15.73245,-7.14286 32.30162,-13.31181 47.48074,-21.22264 -8.207,-8.10223 -18.54888,-14.17428 -28.34997,-20.30371 -0.77901,-0.33285 -1.56594,-0.96817 -2.46124,-0.88082 z"
       id="path14"
       transform="scale(0.26458333)" /><path
       style="fill:#37abc8;fill-opacity:1;stroke:none;stroke-width:5.333;stroke-linecap:round;stroke-linejoin:round;stroke-miterlimit:0;stroke-dasharray:none;stroke-dashoffset:0;stroke-opacity:1;paint-order:stroke fill markers"
       d="m 493.0377,465.32638 c -6.49679,13.69624 -15.33895,27.17341 -28.82747,34.79951 -5.3347,2.98892 -11.45007,4.71666 -17.62332,4.35984 -3.80554,0.24231 -7.62605,-0.23396 -11.08839,-1.90846 -9.2295,-3.86439 -16.30699,-11.4969 -21.88862,-19.60609 -3.37786,-5.23406 -6.31406,-10.82801 -8.17279,-16.7884 -4.06934,-0.52421 -8.44501,-0.12958 -12.62993,-0.30711 -17.551,-0.0982 -35.10468,-0.37881 -52.65472,-0.25992 -0.69107,1.01626 1.77187,1.37181 2.30805,2.07159 34.0855,20.34976 68.33056,40.4331 102.53486,60.58185 1.4471,0.62426 2.79684,-1.30791 4.18873,-1.64669 33.9897,-18.63672 68.13679,-36.99892 101.75586,-56.30035 2.28908,-1.45094 4.82355,-2.66904 6.91181,-4.3626 -0.46596,-1.08115 -2.34407,-0.37047 -3.30421,-0.65819 -20.41227,-0.27058 -40.82815,-0.0822 -61.24185,-0.13965 z"
       id="path15"
       transform="scale(0.26458333)" /><path
       style="fill:#37abc8;fill-opacity:1;stroke:none;stroke-width:5.333;stroke-linecap:round;stroke-linejoin:round;stroke-miterlimit:0;stroke-dasharray:none;stroke-dashoffset:0;stroke-opacity:1;paint-order:stroke fill markers"
       d="m 334.21279,514.64882 c -45.87689,20.99565 -91.88295,41.90328 -137.7312,62.9938 -14.80105,23.46469 -29.21506,47.18067 -44.28809,70.46712 -2.34551,3.29103 -1.93715,8.68186 1.89951,10.67983 7.0205,3.64472 15.22526,2.21834 22.81408,2.52369 128.33216,-0.0497 256.66411,-0.33807 384.99585,-0.6545 0.0546,-1.46979 -3.32571,-2.37076 -4.58932,-3.5995 -71.10955,-45.54851 -142.08132,-91.3118 -213.30948,-136.67425 -3.26065,-1.85364 -6.3215,-4.34174 -9.79135,-5.73619 z m -15.18503,21.49744 c 6.27688,-0.10943 12.67168,0.2116 18.51391,2.75749 11.47651,4.56844 21.24286,13.12236 28.21866,23.22726 2.34577,3.4239 3.88015,7.36804 4.02363,11.55068 1.48641,4.96448 0.77926,10.31778 0.0985,15.33593 -2.89127,15.21668 -12.75775,28.21812 -24.5,37.91919 -16.27962,13.42885 -36.14887,22.42752 -56.78061,26.62756 -2.7537,0.59756 -5.82995,0.44186 -7.89636,-1.73898 -12.21284,-9.79446 -20.91753,-23.83842 -24.12296,-39.16234 -2.68825,-11.65589 -2.09939,-23.7903 -0.98823,-35.6138 0.53146,-5.20638 1.54632,-10.58111 4.92728,-14.75809 10.64674,-14.28356 27.75101,-22.40825 45.05402,-25.14217 4.42968,-0.79896 8.93825,-0.98446 13.45214,-1.00273 z"
       id="path16"
       transform="scale(0.26458333)" /><path
       style="display:inline;fill:none;stroke:#ffffff;stroke-width:6.95612;stroke-linecap:round;stroke-linejoin:round;stroke-miterlimit:0;stroke-dasharray:6.95612, 12.5211;stroke-dashoffset:0;paint-order:markers fill stroke"
       d="m 103.6477,31.216184 c 2.62748,13.420107 -19.816335,9.564491 -19.484692,22.931768 0.331668,13.367252 43.004052,-1.690227 42.726402,8.902945 -0.27763,10.593137 -6.48231,9.908557 -16.84722,9.441978 -4.25469,-0.191547 -4.14789,13.135991 -4.04575,19.363744"
       id="path3" /><path
       style="display:inline;fill:#f9f9f9;stroke:#ffffff;stroke-width:3.30239;stroke-linecap:round;stroke-linejoin:round;stroke-miterlimit:0;paint-order:markers fill stroke"
       id="path4"
       d="m 97.321948,92.187566 8.943692,0.125221 8.9437,0.125222 -4.61774,5.695023 -4.61772,5.695028 -4.32597,-5.82025 z" /></g></svg>
